<svg width="20" height="25" viewBox="0 0 20 25" fill="none" xmlns="http://www.w3.org/2000/svg">
<path d="M10 0C4.47716 0 0 4.47787 0 10C0 15.5221 7.85963 24.2852 10 24.2852C12.1396 24.2852 20 15.5221 20 10C20 4.47787 15.5229 0 10 0Z" fill="#3B62D7"/>
<circle cx="9.90404" cy="10.0225" r="6.5707" fill="#D9D9D9"/>
<path fill-rule="evenodd" clip-rule="evenodd" d="M6 5V12.0149H7.40303V9.55968H9.15682C10.5431 9.55968 11.6121 8.85819 11.6121 7.27984C11.6121 5.70149 10.5506 5 9.48566 5H6ZM7.40303 6.40298H9.15682C9.83278 6.40298 10.2091 6.77156 10.2091 7.27984C10.2091 7.78811 9.76589 8.1567 9.15682 8.1567H7.40303V6.40298ZM12.3134 9.91042V10.327L12.6644 10.6119V11.138H10.5599V10.9627H10.9106C11.2469 10.9627 11.2301 10.6119 10.9106 10.6119H9.85834C9.50758 10.6119 9.50758 10.929 9.85834 10.9627H10.2091V11.138L9.81449 12.0368C9.71535 12.0159 9.61123 12.0149 9.50758 12.0149C8.79078 12.0149 8.10455 12.5718 8.10455 13.4179C8.10455 14.2639 8.79078 14.8208 9.50758 14.8208C10.2244 14.8208 10.8668 14.2201 10.8668 13.374C10.8668 13.2683 10.864 13.1621 10.8448 13.0671H11.4367L12.7148 11.6641L12.9713 12.2122C12.5823 12.4469 12.3136 12.8775 12.3136 13.4179C12.3136 14.2639 12.9999 14.8208 13.7167 14.8208C14.4335 14.8208 15.0759 14.2201 15.0759 13.374C15.0759 12.528 14.4335 12.0149 13.7167 12.0149C13.6114 12.0149 13.5116 12.0356 13.4098 12.0587L13.0152 11.138L13.0149 10.4716L12.3134 9.91042ZM10.4941 11.6641H12.033L11.1956 12.541H10.6037C10.5054 12.4101 10.3901 12.2964 10.2529 12.2122L10.4941 11.6641ZM9.50758 12.7164C9.95309 12.7164 10.2091 13.1016 10.2091 13.4179C10.2091 13.7341 9.95309 14.1194 9.50758 14.1194C9.06206 14.1194 8.80606 13.7341 8.80606 13.4179C8.80606 13.1016 9.06206 12.7164 9.50758 12.7164ZM13.7167 12.7164C14.1622 12.7164 14.4182 13.1016 14.4182 13.4179C14.4182 13.7341 14.1622 14.1194 13.7167 14.1194C13.2712 14.1194 13.0152 13.7341 13.0152 13.4179C13.0152 13.1016 13.2712 12.7164 13.7167 12.7164Z" fill="#3B62D7"/>
</svg>
