<svg width="21" height="24" viewBox="0 0 21 24" fill="none" xmlns="http://www.w3.org/2000/svg">
<path d="M10.8235 0C5.36556 0 0.940979 4.42528 0.940979 9.88256C0.940979 15.3398 8.70831 24 10.8235 24C12.938 24 20.7061 15.3398 20.7061 9.88256C20.7061 4.42528 16.2816 0 10.8235 0Z" fill="#C07718"/>
<circle cx="10.8946" cy="9.94081" r="6.53254" fill="#D9D9D9"/>
<path d="M13.0951 6.03611C12.8279 6.03611 12.6104 6.02179 12.5413 6.57507L12.2644 8.31895L13.9245 9.6873H15.3077C16.276 9.6873 16.3451 9.02406 16.3451 9.02406L15.0308 7.48956C14.5467 7.00544 14.0628 6.92088 13.5787 6.92088V6.57507C13.5787 6.57507 13.6254 6.03604 13.0951 6.03611ZM9.25615 6.22927C9.25615 6.22927 8.59859 6.24352 8.18362 6.38191C7.76866 6.52023 7.35424 7.00463 7.35424 7.69623V10.3938C7.35424 11.5695 6.87011 11.7621 6.66263 11.7621C6.66263 11.7621 5.97102 11.777 5.97102 12.4686V13.9896C5.97102 13.9896 5.97156 14.5434 6.52485 14.5434H6.66263H7.00843H7.35424V14.1976V14.0598C7.35424 13.7832 7.21591 13.644 7.00843 13.5749V12.8144C7.70004 12.8144 7.7692 12.6755 8.04584 12.6064L8.42677 14.126C8.49593 14.3335 8.56509 14.4715 8.77257 14.5407H9.46418L10.1207 14.5285V13.9747C10.1207 13.5069 9.42905 13.4911 9.42905 13.4911V11.7621H11.8497L12.3333 13.5749C12.6099 14.5431 13.2329 14.5285 13.2329 14.5285H13.5787H14.2703V13.9747C14.2703 13.4824 13.5787 13.4911 13.5787 13.4911L13.6476 10.6707L11.5039 8.99569H8.39165V7.61248C8.39165 7.33584 8.58287 7.27034 8.73745 7.26668C9.07917 7.25852 9.25615 7.26668 9.25615 7.26668C9.54262 7.26668 9.77486 7.03444 9.77486 6.74797C9.77486 6.46151 9.54262 6.22927 9.25615 6.22927ZM14.0974 7.95829C14.1929 7.95829 14.2703 8.03568 14.2703 8.13119C14.2703 8.2267 14.1929 8.30409 14.0974 8.30409C14.0019 8.30409 13.9245 8.2267 13.9245 8.13119C13.9245 8.03568 14.0019 7.95829 14.0974 7.95829Z" fill="#C07718"/>
</svg>
