<svg width="21" height="24" viewBox="0 0 21 24" fill="none" xmlns="http://www.w3.org/2000/svg">
<path d="M10.7647 0C5.30669 0 0.882111 4.42528 0.882111 9.88256C0.882111 15.3398 8.64944 24 10.7647 24C12.8792 24 20.6472 15.3398 20.6472 9.88256C20.6472 4.42528 16.2227 0 10.7647 0Z" fill="#9E29A5"/>
<circle cx="10.6698" cy="9.90479" r="6.49353" fill="#D9D9D9"/>
<path d="M13.3106 11.1839C12.1051 10.2216 12.1903 10.2879 12.1617 10.2704C12.1718 10.3061 12.1547 10.2252 12.376 11.3243L12.8784 11.7253C13.0279 11.8447 13.2458 11.8202 13.3652 11.6707C13.4845 11.5213 13.4601 11.3033 13.3106 11.1839Z" fill="#9E29A5"/>
<path d="M15.863 12.0924C15.7754 12.0071 15.657 11.9608 15.5347 11.964C14.8865 11.9807 14.2804 11.8374 13.7335 11.4423C13.2394 11.0853 12.8531 10.5663 12.5314 10.0462C12.3515 9.75542 12.1819 9.39302 11.6965 9.02647C11.0957 8.57265 10.2923 8.37146 9.55727 8.36964V7.37526L10.6434 8.19071C11.1363 8.31673 11.6128 8.53616 12.0121 8.87265C12.3736 9.17724 12.55 9.4604 12.7023 9.71685L12.8986 9.63046L13.0154 10.2105C13.2542 10.5587 13.503 10.8524 13.7828 11.0819C13.8157 11.0183 13.8281 10.9436 13.8129 10.868L13.4586 9.10851C13.4392 9.01229 13.3775 8.92993 13.2906 8.88427C13.2037 8.83864 13.1008 8.83458 13.0106 8.87321L12.5525 9.06948C12.4298 8.57655 12.3877 8.40733 12.2677 7.92503L13.3713 6.41815C13.46 6.29714 13.4337 6.12714 13.3127 6.03849C13.1916 5.94983 13.0217 5.9761 12.933 6.09714L11.8171 7.62077L11.0563 7.82128L9.55729 6.69591V6.51622C9.55729 6.41462 9.51135 6.31845 9.4323 6.2546L7.95699 5.06302C7.85295 4.97899 7.70436 4.97899 7.60029 5.06302L6.12498 6.2546C6.04596 6.31847 6 6.41462 6 6.51622V13.0989C6 13.1906 6.07432 13.2649 6.16596 13.2649H6.56373C6.65539 13.2649 6.72971 13.1905 6.72971 13.0989V11.3396H8.82758V13.0989C8.82758 13.1906 8.90189 13.2649 8.99354 13.2649H9.07516C9.07926 13.2649 9.08053 13.2649 9.08035 13.2649H9.39131C9.48297 13.2649 9.55729 13.1905 9.55729 13.0989V9.68979C9.92811 9.72987 10.4035 9.83446 10.8422 10.0898C11.2048 10.3008 11.4928 10.5863 11.6993 10.9398C12.1546 11.7195 12.5604 12.2283 13.0151 12.5897C13.7699 13.1895 14.6378 13.3447 15.6029 13.2246C15.6031 13.2246 15.6033 13.2246 15.6035 13.2246C15.8306 13.1961 16 13.0035 16 12.7747V12.4172C16 12.2949 15.9506 12.1778 15.863 12.0924ZM8.82758 10.7696H6.72971V9.97147H8.82758V10.7696ZM8.82758 9.4014H6.72971V8.58095H8.82758V9.4014Z" fill="#9E29A5"/>
<path d="M9.62973 8.79346C10.0017 8.79346 10.3032 8.49194 10.3032 8.11999C10.3032 7.74805 10.0017 7.44653 9.62973 7.44653C9.25779 7.44653 8.95627 7.74805 8.95627 8.11999C8.95627 8.49194 9.25779 8.79346 9.62973 8.79346Z" fill="#9E29A5"/>
</svg>
