<svg width="20" height="24" viewBox="0 0 20 24" fill="none" xmlns="http://www.w3.org/2000/svg">
<path d="M9.82355 0C4.39816 0 0 4.39886 0 9.82355C0 15.2482 7.72094 23.8567 9.82355 23.8567C11.9254 23.8567 19.6471 15.2482 19.6471 9.82355C19.6471 4.39886 15.249 0 9.82355 0Z" fill="black"/>
<circle cx="9.89413" cy="9.88147" r="6.49353" fill="#D9D9D9"/>
<path d="M12.0815 6.00003C11.816 6.00003 11.5998 5.9858 11.531 6.53578L11.2558 8.26924L12.906 9.62943H14.2809C15.2434 9.62943 15.3121 8.97015 15.3121 8.97015L14.0057 7.44481C13.5244 6.96358 13.0435 6.87952 12.5622 6.87952V6.53578C12.5622 6.53578 12.6086 5.99997 12.0815 6.00003ZM8.26551 6.19204C8.26551 6.19204 7.61187 6.20621 7.19939 6.34377C6.7869 6.48127 6.37495 6.96277 6.37495 7.65025V10.3317C6.37495 11.5004 5.89372 11.6919 5.68748 11.6919C5.68748 11.6919 5 11.7066 5 12.3941V13.906C5 13.906 5.00054 14.4565 5.55052 14.4565H5.68748H6.03121H6.37495V14.1128V13.9758C6.37495 13.7008 6.23746 13.5625 6.03121 13.4938V12.7378C6.71869 12.7378 6.78744 12.5998 7.06243 12.5311L7.44108 14.0416C7.50983 14.2479 7.57857 14.3851 7.78482 14.4538H8.47229L9.12486 14.4418V13.8912C9.12486 13.4262 8.43738 13.4105 8.43738 13.4105V11.6919H10.8435L11.3242 13.4938C11.5992 14.4563 12.2185 14.4418 12.2185 14.4418H12.5622H13.2497V13.8912C13.2497 13.4019 12.5622 13.4105 12.5622 13.4105L12.6307 10.6069L10.4998 8.94195H7.40617V7.567C7.40617 7.29201 7.59625 7.2269 7.7499 7.22326C8.08959 7.21515 8.26551 7.22326 8.26551 7.22326C8.55026 7.22326 8.78112 6.9924 8.78112 6.70765C8.78112 6.4229 8.55026 6.19204 8.26551 6.19204ZM13.0778 7.91073C13.1728 7.91073 13.2497 7.98766 13.2497 8.0826C13.2497 8.17754 13.1728 8.25447 13.0778 8.25447C12.9829 8.25447 12.906 8.17754 12.906 8.0826C12.906 7.98766 12.9829 7.91073 13.0778 7.91073Z" fill="black"/>
</svg>
